<?xml version="1.0" encoding="UTF-8"?>
<svg version="1.1" xmlns="http://www.w3.org/2000/svg" width="1988" height="432">
<path d="M0 0 C1.3784743 -0.00330707 2.75694764 -0.00703438 4.13541979 -0.01114148 C7.89534464 -0.02107307 11.65525353 -0.02486382 15.41518962 -0.02753079 C19.48150667 -0.03146013 23.54781139 -0.04103613 27.61412048 -0.04974365 C37.41763733 -0.0694297 47.22115508 -0.07956223 57.02468672 -0.08847144 C61.6511777 -0.09286546 66.27766755 -0.09822919 70.90415764 -0.10346031 C86.29843057 -0.12046134 101.69270282 -0.13495474 117.08698368 -0.14220905 C121.07430078 -0.14411865 125.06161786 -0.14603903 129.04893494 -0.147995 C130.5353057 -0.14872061 130.5353057 -0.14872061 132.05170416 -0.14946087 C148.09849883 -0.15775868 164.14521891 -0.18309646 180.19198103 -0.21557567 C196.69737879 -0.24870883 213.2027387 -0.26666328 229.70816988 -0.26985329 C238.96311768 -0.27201212 248.21795655 -0.28066895 257.47287178 -0.30631447 C265.35492727 -0.32810679 273.23684731 -0.33603001 281.11892951 -0.32634769 C285.13339509 -0.32182817 289.14758167 -0.32355088 293.16200829 -0.34310913 C327.62517521 -0.50156496 356.7253642 5.40265122 382.08042908 30.14717102 C385.28858589 33.66390676 388.1752118 37.37901792 391.08042908 41.14717102 C392.63718359 43.07472934 394.20625818 44.99184147 395.77622986 46.90864563 C402.77898515 55.46202557 409.61290018 64.1426501 416.41441345 72.8561554 C421.75734119 79.69666287 427.15218786 86.48700189 432.64292908 93.20967102 C437.36878572 98.99584256 441.95710819 104.86203583 446.48667908 110.80342102 C449.4425397 114.64603983 452.51150715 118.39468412 455.58042908 122.14717102 C460.32898485 127.95340975 464.93896131 133.83823279 469.48667908 139.80342102 C472.4425397 143.64603983 475.51150715 147.39468412 478.58042908 151.14717102 C483.32898485 156.95340975 487.93896131 162.83823279 492.48667908 168.80342102 C495.44254109 172.64604163 498.51155472 176.39464314 501.58042908 180.14717102 C505.50655671 184.94893856 509.38225804 189.77708059 513.14292908 194.70967102 C517.20385687 200.03224628 521.35678737 205.27192503 525.54942322 210.49116516 C528.91985293 214.68924955 532.26136823 218.90837763 535.58042908 223.14717102 C539.38471373 228.00412749 543.22033339 232.83445532 547.08042908 237.64717102 C551.39904882 243.03156839 555.67964034 248.44385859 559.93589783 253.87763977 C563.29095211 258.15557431 566.67893397 262.4060975 570.08042908 266.64717102 C576.70264785 274.90603147 583.24032406 283.2300486 589.75621033 291.57295227 C594.65581542 297.83790451 599.61177824 304.04970808 604.64292908 310.20967102 C609.36878572 315.99584256 613.95710819 321.86203583 618.48667908 327.80342102 C621.4425397 331.64603983 624.51150715 335.39468412 627.58042908 339.14717102 C632.32898485 344.95340975 636.93896131 350.83823279 641.48667908 356.80342102 C644.44254109 360.64604163 647.51155472 364.39464314 650.58042908 368.14717102 C655.33840091 373.96630805 659.9719026 379.85886412 664.52574158 385.83857727 C667.94940104 390.30676609 671.50068968 394.67491041 675.05918884 399.03608704 C679.45792539 404.47416258 682.83439678 408.88921821 683.08042908 416.14717102 C682.05327769 422.27382692 678.908881 425.99870175 674.11167908 429.78779602 C670.37633431 432.28760367 668.03324682 432.46426844 663.65074158 431.75263977 C654.26914016 429.26771135 649.61557606 422.52674847 644.08042908 415.14717102 C643.0517182 413.8011726 642.02173761 412.45614378 640.99058533 411.11201477 C639.36654556 408.99101735 637.74577911 406.86788381 636.13438416 404.73725891 C631.61283115 398.77275639 626.8871665 392.99866855 622.10289001 387.24409485 C617.81480745 382.07433366 613.70447161 376.80293139 609.63902283 371.45576477 C606.69969088 367.62099175 603.6394438 363.88665593 600.58042908 360.14717102 C595.83179939 354.34099527 591.22189425 348.45610586 586.67417908 342.49092102 C583.71831707 338.64830041 580.64930344 334.8996989 577.58042908 331.14717102 C573.65430145 326.34540348 569.77860011 321.51726145 566.01792908 316.58467102 C562.45159149 311.91034506 558.82436443 307.29383381 555.14292908 302.70967102 C551.24322646 297.85371949 547.36218351 292.9846692 543.51792908 288.08467102 C543.06667664 287.50966858 542.61542419 286.93466614 542.15049744 286.34223938 C539.89878542 283.47103432 537.65060372 280.59709891 535.40464783 277.72138977 C530.50503987 271.45643388 525.54891967 265.24476763 520.51792908 259.08467102 C515.75185716 253.24644233 511.10426126 247.33537644 506.52964783 241.34638977 C500.00663146 232.80740698 493.31382298 224.40755338 486.51792908 216.08467102 C482.61370195 211.30319216 478.7616797 206.49294189 475.01792908 201.58467102 C471.45159149 196.91034506 467.82436443 192.29383381 464.14292908 187.70967102 C460.24322646 182.85371949 456.36218351 177.9846692 452.51792908 173.08467102 C452.06667664 172.50966858 451.61542419 171.93466614 451.15049744 171.34223938 C448.89878542 168.47103432 446.65060372 165.59709891 444.40464783 162.72138977 C439.50503987 156.45643388 434.54891967 150.24476763 429.51792908 144.08467102 C424.75185716 138.24644233 420.10426126 132.33537644 415.52964783 126.34638977 C409.00663146 117.80740698 402.31382298 109.40755338 395.51792908 101.08467102 C391.61370102 96.30319102 387.76170475 91.49292403 384.01792908 86.58467102 C379.40401234 80.53781429 374.67257398 74.59261956 369.90464783 68.66670227 C368.18441666 66.52864312 366.48032823 64.38145461 364.78746033 62.22138977 C352.30152033 46.30604266 338.15048889 37.47503942 318.08042908 34.14717102 C313.44403209 33.77090566 308.84303635 33.74461416 304.19319153 33.77294922 C302.85479929 33.77020036 301.51640923 33.76614127 300.17802441 33.76090556 C296.54266911 33.75042967 292.90756369 33.75837467 289.27221966 33.76965606 C285.33474924 33.77856776 281.3973091 33.77003439 277.45983887 33.76379395 C269.76138722 33.75434262 262.06302982 33.76087446 254.36458521 33.77305689 C245.37962385 33.7867401 236.39468444 33.78503333 227.40971531 33.78292356 C211.36243401 33.77973872 195.31519718 33.79137005 179.26792908 33.81098938 C163.7369908 33.82997218 148.20610469 33.83708125 132.67515564 33.83149719 C115.72627041 33.82542126 98.77740806 33.82565103 81.82852471 33.83698303 C80.01634542 33.83819018 78.20416613 33.83939616 76.39198685 33.84060097 C75.0548992 33.84150628 75.0548992 33.84150628 73.69079968 33.84242987 C67.44579429 33.84628926 61.20079748 33.84592304 54.95579147 33.84401512 C47.32787153 33.84187933 39.69999695 33.84722038 32.07208972 33.86162867 C28.18908373 33.86880791 24.30614337 33.87300609 20.42313194 33.86838531 C1.11040083 33.84820005 -18.19012508 33.89943358 -37.16957092 37.95967102 C-38.3999408 38.21623474 -38.3999408 38.21623474 -39.65516663 38.47798157 C-77.98371815 46.76051587 -115.87516242 67.62069153 -140.91957092 98.14717102 C-141.60277405 98.94252258 -142.28597717 99.73787415 -142.98988342 100.55732727 C-164.66567084 126.19819775 -177.45270431 156.13469144 -182.91957092 189.14717102 C-183.09464172 190.03807434 -183.26971252 190.92897766 -183.4500885 191.84687805 C-184.03241815 195.94044655 -184.10101231 199.93939712 -184.12269592 204.06904602 C-184.13124603 205.35733307 -184.13124603 205.35733307 -184.13996887 206.67164612 C-184.14939065 208.49046105 -184.1559416 210.30929283 -184.1598053 212.12812805 C-184.16939413 214.84704076 -184.20039445 217.56515791 -184.23207092 220.28388977 C-184.30255695 231.88822994 -183.23541728 242.78146715 -180.91957092 254.14717102 C-180.7313678 255.11702942 -180.54316467 256.08688782 -180.34925842 257.08613586 C-177.61617535 270.50866984 -172.79644638 282.8103677 -166.91957092 295.14717102 C-166.55847229 295.90658997 -166.19737366 296.66600891 -165.82533264 297.44844055 C-157.09910946 315.48050321 -145.40664568 330.67708897 -131.27894592 344.78388977 C-129.91072651 346.15437445 -128.55693624 347.54023658 -127.24378967 348.96357727 C-99.6441287 378.407607 -55.0304884 395.77378783 -15.22206116 397.28779602 C3.20782764 397.78151083 21.0852459 397.60330513 39.08042908 393.14717102 C40.04416443 392.91642883 41.00789978 392.68568665 42.00083923 392.44795227 C79.85898603 383.14794935 116.66112908 360.74113234 140.08042908 329.14717102 C140.47391541 328.62332825 140.86740173 328.09948547 141.27281189 327.55976868 C171.27257484 287.47045178 184.15835986 239.6490133 177.48277283 189.82588196 C175.15438861 174.32404235 171.15848216 159.58811598 165.08042908 145.14717102 C164.78297791 144.43399719 164.48552673 143.72082336 164.17906189 142.98603821 C157.78661982 127.92751793 148.94963555 114.12467862 139.28746033 100.95967102 C136.72823866 97.11669738 136.71214438 93.64024432 137.08042908 89.14717102 C138.66991258 84.85871304 140.60565318 81.17986347 144.08042908 78.14717102 C149.76717499 75.69153074 155.12766473 75.10769217 160.95542908 77.39717102 C166.91905305 80.68348404 170.39121191 86.6102241 174.08042908 92.14717102 C174.46908142 92.72918274 174.85773376 93.31119446 175.25816345 93.9108429 C177.93359639 97.94831443 180.51348027 102.04005292 183.08042908 106.14717102 C183.60249939 106.94123352 184.1245697 107.73529602 184.66246033 108.55342102 C212.2938577 151.78932655 219.2282259 210.57168124 208.5486908 260.06513977 C199.92346309 298.41547444 182.83376581 332.92973986 156.13121033 361.90888977 C154.20598362 364.01013721 152.35964605 366.16036408 150.51792908 368.33467102 C147.00321972 372.34351185 143.19092374 375.75975862 139.08042908 379.14717102 C138.31496765 379.78912415 138.31496765 379.78912415 137.53404236 380.44404602 C117.71425884 397.02411198 95.44456317 410.38367958 71.08042908 419.14717102 C69.94347595 419.57385071 68.80652283 420.0005304 67.63511658 420.44013977 C60.03625191 423.15402001 52.39209478 425.10530417 44.51792908 426.83467102 C43.59689392 427.0371344 42.67585876 427.23959778 41.72691345 427.44819641 C27.98608296 430.34793712 14.70735867 431.5233328 0.70542908 431.45967102 C-0.12761749 431.45784821 -0.96066406 431.45602539 -1.81895447 431.45414734 C-62.75810319 431.23038771 -116.86253564 407.69699451 -159.7481842 364.62129211 C-166.03091587 358.1845929 -171.69739114 351.46647912 -176.91957092 344.14717102 C-177.33754944 343.56290344 -177.75552795 342.97863586 -178.18617249 342.37666321 C-189.25338134 326.72289043 -198.0819998 310.04752333 -204.91957092 292.14717102 C-205.3290094 291.08176086 -205.3290094 291.08176086 -205.74671936 289.99482727 C-225.76179552 236.85220231 -222.69507674 177.92259127 -199.58729553 126.31538391 C-192.56489955 111.34761301 -183.42490932 97.92582186 -173.29212952 84.91035461 C-172.09155744 83.36810426 -170.90477532 81.81513914 -169.72035217 80.26045227 C-159.65680839 67.43662219 -147.72767397 56.03737852 -134.60658264 46.3898468 C-132.94855543 45.16852141 -131.31080594 43.92339186 -129.67347717 42.67451477 C-92.65145952 14.87359445 -46.15960384 -0.00675862 0 0 Z " fill="#FACC15" transform="translate(537.9195709228516,-0.1471710205078125)"/>
<path d="M0 0 C4.03569659 3.09117185 6.17680975 6.28700995 8 11 C8.42980085 15.1140039 8.37880762 19.20645038 8.34057617 23.33935547 C8.34123329 25.1987249 8.34123329 25.1987249 8.34190369 27.09565735 C8.34017587 30.48177485 8.3251654 33.86733879 8.30418181 37.25335836 C8.28538548 40.79674735 8.28366225 44.34014429 8.28010559 47.88357544 C8.27079377 54.58768894 8.2461918 61.2916551 8.21605712 67.99570382 C8.18248613 75.63050153 8.16602034 83.26530641 8.15097082 90.9001596 C8.11964138 106.60019163 8.06689783 122.30007679 8 138 C9.09037064 137.99723462 10.18074127 137.99446924 11.30415344 137.99162006 C37.83633621 137.92501881 64.36850813 137.87572146 90.90075684 137.84456348 C103.73155692 137.8290952 116.56230177 137.80800631 129.39306641 137.77368164 C140.57646884 137.74377823 151.75983128 137.72442472 162.94327259 137.71773452 C168.86470809 137.71382388 174.78602916 137.70463394 180.70742798 137.68280983 C186.28220492 137.66242994 191.85682043 137.65616931 197.43163109 137.66067696 C199.47622747 137.65985244 201.52082931 137.65389583 203.56539345 137.64238358 C206.36101292 137.62741607 209.1560261 137.63106201 211.95166016 137.63923645 C212.75712941 137.63049793 213.56259867 137.6217594 214.39247608 137.61275607 C221.87302143 137.67171224 228.56096766 139.56096766 234 145 C236.96831152 149.50364506 237.87484408 153.69128705 237 159 C235.58181292 163.64287437 233.72611867 166.92000565 229.5 169.4375 C223.99193484 171.89645766 219.38597028 172.14151071 213.39471436 172.12025452 C212.0787675 172.12153615 212.0787675 172.12153615 210.73623586 172.12284368 C207.79125898 172.12449317 204.84633883 172.11898576 201.90136719 172.11352539 C199.79242962 172.11324338 197.68349195 172.11340153 195.57455444 172.1139679 C189.84356055 172.11425532 184.11258751 172.10836738 178.38159847 172.10139394 C172.39447573 172.09515134 166.40735254 172.09455588 160.42022705 172.09336853 C149.08016291 172.0902579 137.74010839 172.0820481 126.40004849 172.07201904 C113.49089186 172.06084961 100.58173478 172.05534536 87.67257452 172.05032361 C61.11504434 172.03986528 34.55752271 172.022271 8 172 C8.00368717 172.7202237 8.00737434 173.44044741 8.01117325 174.18249607 C8.09956319 191.71818044 8.1657285 209.25380812 8.20724869 226.78966618 C8.22786195 235.26993377 8.25595883 243.75005254 8.30175781 252.23022461 C8.34166354 259.62272872 8.3674418 267.01512503 8.37635398 274.40773386 C8.38156245 278.32104651 8.39377813 282.23405079 8.42292023 286.14726448 C8.45014861 289.83350497 8.45843019 293.5193112 8.45243073 297.2056427 C8.45404918 299.19748992 8.47553307 301.18929027 8.49768066 303.18101501 C8.46631777 310.00278963 8.20794529 314.51325588 4 320 C-0.55283796 324.0234382 -5.02579711 325.26065458 -11 325 C-16.22730596 323.43180821 -19.55575547 321.23150042 -23 317 C-25.68259063 311.20890404 -25.28145836 305.25990235 -25.26069641 299.01234436 C-25.26643473 297.18671507 -25.26643473 297.18671507 -25.27228898 295.32420439 C-25.28081534 291.95353091 -25.28038798 288.58307584 -25.27610838 285.21240866 C-25.27364063 281.57429777 -25.28265591 277.93621247 -25.29014587 274.29811096 C-25.30289329 267.17378847 -25.30468653 260.04950366 -25.30234561 252.92517168 C-25.30056243 247.13446624 -25.30231209 241.34377224 -25.30657005 235.55306816 C-25.30716524 234.72884451 -25.30776043 233.90462086 -25.30837366 233.05542074 C-25.30958541 231.38100406 -25.31079954 229.70658738 -25.31201603 228.03217071 C-25.32289162 212.33070007 -25.32072892 196.62925092 -25.31463119 180.92777907 C-25.30946136 166.56424062 -25.32071917 152.20076997 -25.33972941 137.83724494 C-25.35910181 123.08696289 -25.3673649 108.33671294 -25.36360615 93.58641809 C-25.36169328 85.30595731 -25.36419007 77.02555425 -25.37832069 68.74510384 C-25.39022781 61.69631612 -25.39164688 54.64762166 -25.37953053 47.59883267 C-25.37363726 44.00301499 -25.37255466 40.40736795 -25.38453293 36.81156158 C-25.3973704 32.9125027 -25.38693793 29.01370304 -25.3742218 25.11463928 C-25.38159609 23.9796193 -25.38897037 22.84459931 -25.39656812 21.67518479 C-25.34533105 14.22206035 -24.22741285 9.62985798 -20.3125 3.25 C-14.32789421 -2.57285969 -7.64424536 -2.89954134 0 0 Z " fill="#FACC15" transform="translate(1370,54)"/>
<path d="M0 0 C4.12257319 3.64320421 6.68469712 7.89743407 7.6875 13.375 C7.78104257 15.60626391 7.81661892 17.8401597 7.81892776 20.07338238 C7.8209804 20.74896249 7.82303303 21.4245426 7.82514787 22.12059483 C7.83082294 24.39476107 7.82935999 26.66886685 7.82794189 28.94303894 C7.83052524 30.58587298 7.83353832 32.2287064 7.8369453 33.87153894 C7.84502217 38.39435711 7.84680525 42.91715943 7.84754276 47.43998396 C7.84939213 52.31470963 7.85693889 57.18942705 7.86367798 62.06414795 C7.87726684 72.72739732 7.88328692 83.39064294 7.88768864 94.05389953 C7.8904502 100.71082816 7.8946874 107.36775534 7.89919281 114.024683 C7.91138635 132.45199969 7.9216854 150.87931522 7.9250679 169.30663586 C7.92539725 171.07614438 7.92539725 171.07614438 7.92573325 172.88140054 C7.92606067 174.65516961 7.92606067 174.65516961 7.9263947 176.4647724 C7.92683817 178.86103642 7.92728473 181.25730044 7.92773438 183.65356445 C7.9279558 184.84219695 7.92817723 186.03082944 7.92840537 187.2554811 C7.9323535 206.51617977 7.94980758 225.77684061 7.9730939 245.03752466 C7.99680292 264.80726321 8.00926955 284.57698278 8.01043582 304.34673578 C8.01135285 315.44868391 8.01711215 326.55058275 8.03525543 337.65251732 C8.05065037 347.10612536 8.05578047 356.55966889 8.04751733 366.01328709 C8.04360865 370.83663815 8.0445511 375.65985926 8.05857468 380.48319435 C8.0713004 384.90054123 8.07012774 389.31766034 8.05798396 393.73500685 C8.05602466 395.33127051 8.05911617 396.92755024 8.06782833 398.52379134 C8.16234846 417.01564467 8.16234846 417.01564467 2.96875 423.53125 C2.3809375 423.9746875 1.793125 424.418125 1.1875 424.875 C0.5996875 425.3390625 0.011875 425.803125 -0.59375 426.28125 C-4.55464562 428.80181994 -8.77302469 428.94142294 -13.3125 428.375 C-17.99433789 426.96960201 -21.24675662 425.07795442 -23.75 420.8125 C-25.89340153 416.09701664 -26.43864859 412.89878023 -26.44392776 407.75002003 C-26.4459804 407.07022904 -26.44803303 406.39043806 -26.45014787 405.69004735 C-26.45583508 403.39554523 -26.4543585 401.10110281 -26.45294189 398.80659485 C-26.45552455 397.15153677 -26.45853743 395.49647932 -26.4619453 393.84142274 C-26.47003036 389.2802099 -26.47180571 384.71901279 -26.47254276 380.15779364 C-26.47439072 375.24353271 -26.48193678 370.32928 -26.48867798 365.4150238 C-26.50227284 354.66294221 -26.5082879 343.91086433 -26.51268864 333.15877557 C-26.51544929 326.44741947 -26.51968634 319.73606482 -26.52419281 313.0247097 C-26.53638732 294.44988374 -26.54668605 275.87505895 -26.5500679 257.30022907 C-26.55028747 256.11086721 -26.55050703 254.92150535 -26.55073325 253.69610221 C-26.55095153 252.5038611 -26.55116981 251.31161998 -26.5513947 250.08325034 C-26.55183817 247.66723525 -26.55228473 245.25122017 -26.55273438 242.83520508 C-26.5529558 241.63677293 -26.55317723 240.43834078 -26.55340537 239.2035925 C-26.55735356 219.78372494 -26.57480741 200.36389489 -26.5980939 180.94404183 C-26.62179841 161.01500803 -26.63426935 141.08599306 -26.63543582 121.15694493 C-26.63635312 109.96391107 -26.6421193 98.77092607 -26.66025543 87.57790565 C-26.67564431 78.04665758 -26.68078407 68.51547349 -26.67251733 58.98421536 C-26.66860644 54.12049023 -26.66956183 49.25689399 -26.68357468 44.39318466 C-26.69628728 39.94007592 -26.69513932 35.48719325 -26.68298396 31.03408494 C-26.68102238 29.42367739 -26.68412669 27.81325397 -26.69282833 26.20286874 C-26.78147289 8.68777711 -26.78147289 8.68777711 -21 1.5 C-14.41486525 -3.70685073 -7.34579284 -3.60359649 0 0 Z " fill="#FACC15" transform="translate(1774.3125,2.625)"/>
<path d="M0 0 C4.17818362 2.32121312 7.34279555 4.95751707 8.99959826 9.64040101 C9.50992733 12.67816221 9.50330175 15.61004967 9.50642776 18.69108391 C9.5084804 19.37938142 9.51053303 20.06767894 9.51264787 20.77683395 C9.51832378 23.09423162 9.51685989 25.41156998 9.51544189 27.72897339 C9.51802518 29.4028191 9.52103824 31.07666419 9.5244453 32.75050843 C9.53252264 37.35892941 9.53430527 41.96733481 9.53504276 46.57576203 C9.536892 51.54245564 9.54443861 56.50914115 9.55117798 61.47583008 C9.56476631 72.33928488 9.57078659 83.20273599 9.57518864 94.06619787 C9.57794981 100.84639025 9.58218689 107.6265812 9.58669281 114.40677261 C9.59888535 133.17122496 9.6091852 151.93567615 9.6125679 170.70013237 C9.61289725 172.50193284 9.61289725 172.50193284 9.61323325 174.34013332 C9.61356067 176.14628891 9.61356067 176.14628891 9.6138947 177.98893249 C9.61433817 180.42898234 9.61478473 182.86903218 9.61523438 185.30908203 C9.6154558 186.51943576 9.61567723 187.72978949 9.61590537 188.9768206 C9.61985523 208.59843785 9.63731505 228.220018 9.6605939 247.84162091 C9.68428917 267.97633895 9.69676889 288.11103836 9.69793582 308.24577057 C9.69885353 319.55497961 9.70462997 330.86414029 9.72275543 342.17333603 C9.73813171 351.80123506 9.74329147 361.42907079 9.73501733 371.05697976 C9.73110225 375.97109518 9.73208219 380.88508305 9.74607468 385.79918289 C9.75876202 390.29593978 9.75766177 394.79247258 9.74548396 399.28922893 C9.74351799 400.91774044 9.7466467 402.54626755 9.75532833 404.17475711 C9.76637152 406.38585611 9.75896818 408.59615732 9.7469368 410.80723381 C9.74753389 412.03611883 9.74813097 413.26500385 9.74874616 414.53112781 C9.26116101 418.89350688 7.84573987 422.26254821 4.875 425.51953125 C-0.55080516 429.74431183 -4.88990565 430.68186654 -11.625 429.875 C-16.4483832 428.14497562 -19.84401744 425.15343471 -22.625 420.875 C-23.84934994 417.30233618 -23.75261016 413.82903434 -23.75642776 410.07732677 C-23.7584804 409.39101723 -23.76053303 408.70470769 -23.76264787 407.99760088 C-23.76832365 405.68695588 -23.76685991 403.37637037 -23.76544189 401.0657196 C-23.76802519 399.39671139 -23.77103825 397.72770379 -23.7744453 396.05869704 C-23.78252259 391.46360825 -23.78430527 386.86853506 -23.78504276 382.27344 C-23.78689203 377.32104232 -23.79443868 372.36865276 -23.80117798 367.41625977 C-23.81476656 356.58372857 -23.82078671 345.75120108 -23.82518864 334.91866279 C-23.82794992 328.1572237 -23.83218704 321.39578604 -23.83669281 314.63434792 C-23.84888569 295.92050993 -23.85918527 277.2066731 -23.8625679 258.49283123 C-23.86278747 257.29485009 -23.86300703 256.09686895 -23.86323325 254.86258535 C-23.86345153 253.66171203 -23.86366981 252.46083871 -23.8638947 251.22357529 C-23.86433817 248.7900821 -23.86478473 246.3565889 -23.86523438 243.9230957 C-23.8654558 242.7159949 -23.86567723 241.5088941 -23.86590537 240.26521448 C-23.86985467 220.69923822 -23.88731261 201.13329918 -23.9105939 181.5673373 C-23.9342936 161.48798503 -23.94676911 141.40865145 -23.94793582 121.32928497 C-23.94885331 110.05190207 -23.95462425 98.77456766 -23.97275543 87.4971981 C-23.98813771 77.89567804 -23.99328792 68.29422145 -23.98501733 58.69269141 C-23.98110431 53.7926288 -23.9820722 48.89269412 -23.99607468 43.99264717 C-24.00877435 39.50755715 -24.00765079 35.0226917 -23.99548396 30.53760216 C-23.99352014 28.9144564 -23.99663691 27.29129493 -24.00532833 25.66817125 C-24.01639502 23.46190695 -24.00895117 21.25643883 -23.9969368 19.05019665 C-23.99753389 17.82472911 -23.99813097 16.59926157 -23.99874616 15.33665866 C-23.44341915 10.19318761 -22.03556859 6.24844837 -18.25 2.5625 C-12.10032913 -1.39085985 -7.10426759 -2.2047727 0 0 Z " fill="#FACC15" transform="translate(23.625,1.125)"/>
<path d="M0 0 C1.25334322 -0.00668677 1.25334322 -0.00668677 2.5320065 -0.01350862 C3.90124898 -0.01323207 3.90124898 -0.01323207 5.29815292 -0.01294994 C6.7587662 -0.01846498 6.7587662 -0.01846498 8.24888682 -0.02409142 C11.52066491 -0.03512857 14.79241125 -0.03897215 18.06420517 -0.04278088 C20.40646592 -0.04904543 22.74872568 -0.05569223 25.09098434 -0.0626936 C31.46091274 -0.0801023 37.83083363 -0.09065475 44.20077991 -0.09889913 C48.17955595 -0.10404895 52.15832965 -0.11012465 56.13710403 -0.11641026 C67.15700702 -0.13341918 78.17690903 -0.14791335 89.19682312 -0.155159 C92.05512366 -0.15706882 94.91342419 -0.15898916 97.7717247 -0.16094494 C98.48212114 -0.16142868 99.19251758 -0.16191242 99.92444119 -0.16241082 C111.4324825 -0.17071123 122.94041986 -0.19604979 134.44841579 -0.22852562 C146.26851285 -0.26160982 158.0885571 -0.27960892 169.9087007 -0.28280324 C176.5432585 -0.28496692 183.17768195 -0.29413898 189.81219864 -0.31926441 C196.05353627 -0.34251922 202.29460099 -0.34678859 208.53597069 -0.33650303 C210.82567947 -0.33600696 213.11540157 -0.34234836 215.40506935 -0.35605907 C218.53341367 -0.37374263 221.66077477 -0.3666886 224.78911972 -0.35352612 C226.14497787 -0.36997998 226.14497787 -0.36997998 227.52822709 -0.38676625 C234.61712258 -0.31486372 239.97473811 1.45992745 245.17260361 6.38422108 C247.70908624 10.67673015 249.18929373 14.43741205 248.45775986 19.47406483 C246.86863565 25.12532903 244.67075987 27.91793794 239.79760361 31.13422108 C235.03869926 33.66328038 230.42412004 33.41672378 225.17007065 33.39491749 C224.19476847 33.39874304 223.21946629 33.40256858 222.2146095 33.40651006 C218.94355416 33.41683632 215.67267447 33.41284857 212.40160751 33.40887928 C210.05757611 33.41322597 207.71354614 33.41840897 205.36951828 33.42436695 C198.99969681 33.43777314 192.62993462 33.43833378 186.2601018 33.43580365 C180.27213222 33.43459984 174.28417099 33.44080951 168.29620473 33.44623711 C155.71123262 33.45711252 143.12628731 33.45495024 130.54131369 33.44885226 C119.03267637 33.44368395 107.5241237 33.45493627 96.01550312 33.47395048 C84.19424329 33.49333126 72.3730235 33.50158441 60.55174768 33.49782723 C53.91671147 33.49591544 47.28173828 33.4986653 40.64671326 33.51254177 C34.40702991 33.52510273 28.16751616 33.52319226 21.92783546 33.51013088 C19.63771444 33.50776175 17.34758155 33.51051179 15.05747414 33.51875401 C11.93115319 33.52919444 8.80540415 33.52114209 5.67910385 33.50844288 C4.7729677 33.51581716 3.86683154 33.52319145 2.93323672 33.5307892 C-3.90655304 33.47234469 -8.60679551 32.2683818 -14.01489639 27.82172108 C-17.48943403 23.55300341 -18.44144764 20.05858473 -18.07739639 14.63422108 C-17.45178946 10.31316857 -16.0800997 7.4915416 -13.20239639 4.13422108 C-8.95168887 1.05245812 -5.18998648 0.01288954 0 0 Z " fill="#FACC15" transform="translate(1363.2023963928223,-0.13422107696533203)"/>
<path d="M0 0 C0.94938973 -0.00297112 1.89877946 -0.00594224 2.87693858 -0.0090034 C6.060363 -0.0176797 9.24374976 -0.01919775 12.42718506 -0.02069092 C14.70885803 -0.02531983 16.99053024 -0.03034459 19.27220154 -0.03573608 C25.47272494 -0.04885464 31.67323751 -0.05530393 37.87377262 -0.05974674 C41.74786843 -0.06267821 45.62196128 -0.06678316 49.4960556 -0.07125092 C60.22948244 -0.08335791 70.96290541 -0.09374069 81.69633865 -0.09712601 C82.38285241 -0.09734557 83.06936617 -0.09756514 83.77668338 -0.09779136 C84.46480662 -0.09800964 85.15292987 -0.09822791 85.86190534 -0.09845281 C87.25622384 -0.09889627 88.65054234 -0.09934283 90.04486084 -0.09979248 C90.73648578 -0.10001391 91.42811072 -0.10023534 92.14069399 -0.10046348 C103.34404971 -0.10441036 114.54734035 -0.12186231 125.75067094 -0.145152 C137.2623144 -0.1688888 148.77391596 -0.18107113 160.28558517 -0.18249393 C166.74519973 -0.18354192 173.20472245 -0.18944872 179.66431427 -0.20731354 C185.74148166 -0.22379388 191.81848816 -0.22594978 197.89566994 -0.21717453 C200.1236775 -0.21640416 202.35169372 -0.2207469 204.57967949 -0.23063278 C207.62647148 -0.24335689 210.67269405 -0.23747267 213.71948242 -0.22705078 C214.5964472 -0.23510719 215.47341198 -0.24316359 216.37695146 -0.25146413 C223.53163767 -0.19441616 229.94452172 0.92558479 235.5512085 5.57794189 C239.87500275 10.9499287 240.30823228 15.371591 239.6137085 22.14044189 C237.77351839 26.74091716 234.49798367 29.22723552 230.6137085 32.14044189 C227.88285753 33.05072555 226.30176535 33.26636116 223.49474525 33.26907635 C222.23116328 33.27391302 222.23116328 33.27391302 220.94205439 33.2788474 C220.01648497 33.27729879 219.09091556 33.27575019 218.13729858 33.27415466 C216.66254124 33.277553 216.66254124 33.277553 215.15799081 33.28101999 C211.84845914 33.28737325 208.53896827 33.28652977 205.22943115 33.28570557 C202.86274665 33.28869623 200.49606264 33.29209854 198.12937927 33.29588318 C192.35889375 33.30381631 186.5884207 33.30693824 180.81793 33.30749556 C176.12792043 33.30797049 171.43791423 33.31002413 166.74790573 33.31319618 C153.45461243 33.3220042 140.16132722 33.32661534 126.86803098 33.32586571 C126.15117487 33.32582575 125.43431877 33.3257858 124.69573975 33.32574463 C123.97800964 33.32570375 123.26027954 33.32566287 122.52080004 33.32562075 C110.88784032 33.32521426 99.25491297 33.33478407 87.62196262 33.348883 C75.68100016 33.36324117 63.74005348 33.37015348 51.79908216 33.36928922 C45.09366768 33.36895705 38.38828712 33.37171281 31.6828804 33.38246727 C25.37760205 33.39212615 19.07239548 33.39224262 12.76711464 33.38495064 C10.45035383 33.38390204 8.13358861 33.38628388 5.8168354 33.3923111 C2.65916692 33.39999517 -0.49825145 33.39540993 -3.65591431 33.38768005 C-4.57702228 33.39282362 -5.49813025 33.39796718 -6.44715059 33.40326661 C-12.38092337 33.37107206 -16.31699218 32.864858 -21.0112915 28.95294189 C-24.77021724 24.50158247 -26.3862915 21.00879201 -26.3862915 15.14044189 C-25.57945318 10.67246621 -23.56327229 7.35149218 -20.3862915 4.14044189 C-13.81847521 0.03555671 -7.50313428 -0.00733878 0 0 Z " fill="#FACC15" transform="translate(1371.3862915039063,397.85955810546875)"/>
<path d="M0 0 C5.21746079 2.9116167 8.0241753 6.45709456 9.7734375 12.1640625 C10.83166066 19.57162464 7.75866612 24.47473031 3.515625 30.22265625 C0.66476825 33.92099252 -2.27637052 37.5448205 -5.2265625 41.1640625 C-6.30087758 42.48690094 -7.37509522 43.80981852 -8.44921875 45.1328125 C-10.09334007 47.15613848 -11.73844481 49.17863136 -13.38623047 51.19897461 C-17.35700342 56.07219596 -21.26113724 60.99316972 -25.1328125 65.9453125 C-28.46811046 70.20869337 -31.83920184 74.44195357 -35.2265625 78.6640625 C-39.08673345 83.47671901 -42.92218611 88.30717853 -46.7265625 93.1640625 C-51.0301893 98.65831804 -55.37945749 104.11433004 -59.74609375 109.55859375 C-63.09753215 113.74139671 -66.42145685 117.94457604 -69.7265625 122.1640625 C-74.03082212 127.65912594 -78.38025036 133.11633283 -82.74829102 138.56079102 C-86.08133358 142.71970119 -89.38148598 146.90275164 -92.6640625 151.1015625 C-96.64586208 156.19315053 -100.69987181 161.22090113 -104.7890625 166.2265625 C-108.79562774 171.13376445 -112.74821847 176.07300067 -116.6015625 181.1015625 C-117.39949219 182.14054688 -118.19742188 183.17953125 -119.01953125 184.25 C-120.41668155 186.09473296 -121.79665573 187.95271074 -123.15234375 189.828125 C-127.09530917 195.1961533 -130.47313745 199.34747049 -137.38671875 200.53515625 C-143.09438898 200.85823192 -147.5316927 199.38971422 -152.2265625 196.1640625 C-155.78736074 192.4883998 -156.39886066 188.46717901 -156.6640625 183.4765625 C-156.53688474 177.21760009 -154.0832962 173.92209809 -150.2265625 169.1640625 C-149.77023437 168.59413574 -149.31390625 168.02420898 -148.84375 167.43701172 C-146.11674836 164.03262987 -143.36428355 160.6502783 -140.59375 157.28125 C-137.56619898 153.5935175 -134.60062076 149.86196614 -131.6640625 146.1015625 C-127.38320494 140.62496076 -123.05459297 135.18889355 -118.70458984 129.76708984 C-115.37168412 125.60821717 -112.07156852 121.42528317 -108.7890625 117.2265625 C-104.80726484 112.13497693 -100.75335279 107.10714015 -96.6640625 102.1015625 C-91.93813128 96.3154545 -87.34988077 90.44919425 -82.8203125 84.5078125 C-79.32418074 79.96284121 -75.67274588 75.54373452 -72.04296875 71.10546875 C-68.70049754 67.00799228 -65.43250749 62.86926308 -62.2265625 58.6640625 C-57.96572403 53.07732292 -53.56197635 47.62162003 -49.11767578 42.18017578 C-45.57039362 37.83186077 -42.06296403 33.45604274 -38.6015625 29.0390625 C-38.15997803 28.47590332 -37.71839355 27.91274414 -37.26342773 27.33251953 C-34.92552073 24.3462638 -32.59704483 21.3528613 -30.2734375 18.35546875 C-29.78439941 17.72721191 -29.29536133 17.09895508 -28.79150391 16.45166016 C-27.86373596 15.25962464 -26.93871192 14.06544589 -26.01708984 12.86865234 C-23.29900846 9.38077554 -20.40301092 6.23716757 -17.2265625 3.1640625 C-16.6903125 2.5865625 -16.1540625 2.0090625 -15.6015625 1.4140625 C-11.62600824 -2.20007774 -4.73439804 -1.77747576 0 0 Z " fill="#FACC15" transform="translate(1014.2265625,230.8359375)"/>
<path d="M0 0 C5.09281446 2.83700303 7.64017854 6.01472402 9.25 11.625 C10.10242327 16.52241294 9.45342084 20.10149746 6.8125 24.3125 C4.25507444 27.57860975 1.58201232 30.70970664 -1.15625 33.82421875 C-4.12516596 37.20601145 -6.92453005 40.69902963 -9.6875 44.25 C-10.14133057 44.83160889 -10.59516113 45.41321777 -11.06274414 46.01245117 C-11.98157097 47.19128956 -12.89962197 48.37073306 -13.81689453 49.55078125 C-16.0779488 52.45704552 -18.35085816 55.35397159 -20.625 58.25 C-21.07617188 58.82484131 -21.52734375 59.39968262 -21.9921875 59.99194336 C-25.86630139 64.92032656 -29.78315281 69.81383719 -33.70458984 74.70458984 C-38.91161346 81.20453106 -44.05238913 87.75570018 -49.1875 94.3125 C-55.31979282 102.1425581 -61.48305658 109.94519448 -67.70458984 117.70458984 C-72.45252233 123.6314464 -77.14556715 129.60043592 -81.82861328 135.57861328 C-84.56809259 139.07408257 -87.31352869 142.564877 -90.05834961 146.05615234 C-92.37819396 149.00748005 -94.69543873 151.96078308 -97.0078125 154.91796875 C-99.2923385 157.8385163 -101.58570106 160.75191633 -103.88525391 163.66064453 C-104.74223423 164.74769531 -105.59616575 165.83715774 -106.44677734 166.92919922 C-115.94054975 179.11053295 -115.94054975 179.11053295 -123.5 181.25 C-128.79029833 181.33966607 -133.58533582 180.39801173 -137.80078125 177.01953125 C-140.9976103 173.50207627 -142.55551197 169.97341175 -143.1875 165.3125 C-141.64655758 153.71140491 -131.24443956 144.06986388 -124.11230469 135.36157227 C-120.69414121 131.18661437 -117.33699192 126.97602813 -114.0625 122.6875 C-107.42063189 113.98879532 -100.66367249 105.38361977 -93.80444336 96.85522461 C-89.03442067 90.92372365 -84.35148558 84.93833684 -79.75 78.875 C-74.97751572 72.58788217 -70.06921826 66.43408029 -65.06274414 60.33227539 C-61.168336 55.56737314 -57.40404426 50.71706495 -53.6875 45.8125 C-48.89264186 39.4870145 -43.96971903 33.28664168 -38.94165039 27.14526367 C-34.39502192 21.58827332 -29.94730545 15.95877713 -25.52734375 10.30078125 C-24.75519531 9.31464844 -23.98304687 8.32851562 -23.1875 7.3125 C-22.50429687 6.405 -21.82109375 5.4975 -21.1171875 4.5625 C-15.5724903 -1.90257204 -7.72849036 -3.49996329 0 0 Z " fill="#FACC15" transform="translate(1197.1875,1.6875)"/>
<path d="M0 0 C1.30922424 -0.00708481 2.61844849 -0.01416962 3.96734619 -0.02146912 C5.40109288 -0.01917573 6.83483923 -0.01666609 8.26858521 -0.01396179 C9.79194386 -0.01831325 11.31530032 -0.02349785 12.83865356 -0.02944946 C16.96270356 -0.04280455 21.08666172 -0.043422 25.21072912 -0.04088616 C28.65987509 -0.03981401 32.10900267 -0.04470611 35.55814469 -0.04949158 C43.69894363 -0.06057486 51.83969643 -0.06103092 59.98049927 -0.05497742 C68.36419326 -0.04893891 76.74771937 -0.06124819 85.13138473 -0.08254749 C92.34265804 -0.10019106 99.55387804 -0.10616047 106.76517212 -0.10290974 C111.06624108 -0.10110102 115.36719028 -0.10369184 119.66823959 -0.11762428 C123.71487344 -0.13024285 127.76124653 -0.12822068 131.80787659 -0.11521339 C133.28765579 -0.11285675 134.76745358 -0.11554942 136.24721146 -0.12383652 C154.1217263 -0.21667223 154.1217263 -0.21667223 159.86948967 4.57100964 C163.21063851 8.24949703 165.24728558 12.20225053 165.32766724 17.20600891 C164.95238228 22.14100609 163.64043229 25.48796148 160.29641724 29.26069641 C152.86690269 34.26866124 145.28057795 33.82799289 136.64407349 33.77827454 C135.05982827 33.78370101 133.47558811 33.79082662 131.89135742 33.79951477 C127.60617988 33.81768871 123.32138926 33.81070528 119.03620529 33.79799843 C114.54228456 33.78783991 110.04839597 33.79727201 105.55447388 33.80354309 C98.00908488 33.81081121 90.46385271 33.80125377 82.91848755 33.78218079 C74.20693295 33.76041362 65.49575287 33.76746558 56.78420734 33.78948641 C49.29180614 33.80766426 41.79951739 33.81018709 34.30710125 33.79973173 C29.83783013 33.79350989 25.36873479 33.79262499 20.8994751 33.80587769 C16.6967944 33.81747039 12.49459449 33.80934849 8.29196548 33.78630066 C6.75372235 33.78103175 5.21543844 33.7824961 3.67721176 33.79135132 C-4.30783972 33.83306576 -10.88789529 33.85490279 -17.70358276 29.26069641 C-21.40848006 25.08081228 -22.95487953 20.84157887 -22.70358276 15.26069641 C-21.81150651 10.62018437 -20.22944797 7.81046458 -16.95358276 4.38569641 C-11.56441739 0.86201136 -6.36115506 0.01153328 0 0 Z " fill="#FACC15" transform="translate(74.70358276367188,397.7393035888672)"/>
<path d="M0 0 C1.95338287 -0.01062721 1.95338287 -0.01062721 3.94622803 -0.02146912 C5.37211644 -0.01917575 6.79800452 -0.01666611 8.22389221 -0.01396179 C9.7390213 -0.01831326 11.2541482 -0.02349786 12.76927185 -0.02944946 C16.8705283 -0.0428033 20.97169239 -0.04342222 25.07296634 -0.04088616 C28.50232399 -0.03981409 31.93166314 -0.04470582 35.36101681 -0.04949158 C43.4538319 -0.06057406 51.54660056 -0.06103114 59.63941956 -0.05497742 C67.97655472 -0.04893667 76.31352117 -0.06125405 84.65062755 -0.08254749 C91.82027205 -0.100183 98.98986293 -0.10616181 106.15952832 -0.10290974 C110.43653235 -0.1011 114.713416 -0.10370224 118.99040031 -0.11762428 C123.01322914 -0.13022997 127.0357955 -0.12823277 131.05862045 -0.11521339 C132.53075691 -0.11285409 134.00291201 -0.11555906 135.47502708 -0.12383652 C144.53903451 -0.17110784 151.32064733 0.14522686 159.14015198 5.01069641 C162.4311445 8.3957173 164.21642647 11.70695879 164.42530823 16.50288391 C163.999284 22.67503985 161.97892436 26.85798081 157.32765198 31.07319641 C153.28092723 33.47593923 149.38063177 33.39110045 144.74359131 33.40786743 C144.08357709 33.41154412 143.42356287 33.41522081 142.74354821 33.41900891 C140.53353776 33.43001564 138.32357437 33.43388442 136.11354065 33.43769836 C134.52826794 33.4439652 132.9429967 33.4506122 131.35772705 33.45761108 C126.15370196 33.47862449 120.94967667 33.48900967 115.74562073 33.49897766 C113.95282285 33.50302598 112.16002512 33.50714292 110.36722755 33.51132774 C101.94545754 33.53037199 93.52369626 33.54460566 85.10190886 33.55293971 C75.38449917 33.56271516 65.66731708 33.58904588 55.94998759 33.62944061 C48.43563271 33.65960467 40.92134308 33.67440879 33.40692884 33.67772073 C28.92026337 33.68007052 24.43384128 33.68902196 19.94724083 33.7141819 C15.7257973 33.73747335 11.50475722 33.74169166 7.28326607 33.73142052 C5.73652173 33.73092533 4.18975746 33.73724065 2.64307404 33.75097656 C-6.74139106 33.8296368 -12.75781227 33.52858272 -20.04734802 27.19819641 C-23.63076142 22.92566505 -23.13071137 17.54885132 -22.67234802 12.26069641 C-20.84410599 7.69009132 -17.64537939 5.08766104 -13.67234802 2.26069641 C-9.00429731 0.6579863 -4.92158753 0.00897137 0 0 Z " fill="#FACC15" transform="translate(1823.672348022461,397.7393035888672)"/>
</svg>
